<svg xmlns="http://www.w3.org/2000/svg" viewBox="0 0 32 32"><path d="M28.59 4.29a2.23 2.23 0 0 0-2.27-.36L3.41 13.1a1.83 1.83 0 0 0 0 3.38l1.48.61a1 1 0 0 0 1.31-.53 1 1 0 0 0-.54-1.31l-1.1-.45 22.51-9a.22.22 0 0 1 .23 0 .24.24 0 0 1 .08.23l-4.11 19.18a.4.4 0 0 1-.26.3.39.39 0 0 1-.39-.06l-8-6.24 7.83-7.91a1 1 0 0 0-1.22-1.56l-11.48 6.8a1 1 0 1 0 1 1.72l4.83-2.85-2.35 2.39a2 2 0 0 0 .2 3.08l8 6.15a2.4 2.4 0 0 0 1.47.5 2.47 2.47 0 0 0 .83-.15 2.37 2.37 0 0 0 1.52-1.75l4.08-19.16a2.23 2.23 0 0 0-.74-2.18Z" data-name="telegram social media network chat"/></svg>